<?xml version="1.0" encoding="utf-8"?>
<!-- Generator: Adobe Illustrator 21.0.0, SVG Export Plug-In . SVG Version: 6.00 Build 0)  -->
<svg version="1.1" id="Calque_1" xmlns="http://www.w3.org/2000/svg" xmlns:xlink="http://www.w3.org/1999/xlink" x="0px" y="0px"
	 viewBox="0 0 952.4 952.4" style="enable-background:new 0 0 952.4 952.4;" xml:space="preserve">
<style type="text/css">
	.st0{fill:#E4B327;}
	.st1{fill:#231F20;}
</style>
<circle class="st0" cx="476.2" cy="476.2" r="476.2"/>
<path class="st1" d="M361.7,728.6V223.9h-88c-22.9,17.8-77.2,51.5-135.7,79.5l-30.8,14.2l34.3,77.3l26.5-13.7
	c18.4-9.3,69.2-35.8,86.4-49.2v396.7L361.7,728.6 M618.7,214c-152.2,0-185.3,147.2-185.3,263.8c0,116.6,30.1,263.8,182.3,263.8
	c152.4,0,185.2-147.2,185.2-263.8C801,361.2,771,214,618.7,214L618.7,214z M617.3,657.2c-71.3,0-75.1-128.5-75.1-179.4
	c0-51.6,2.1-178.7,75.1-178.7c72.2,0,74.5,125.8,74.5,178.7C691.7,527.9,688.9,657.2,617.3,657.2L617.3,657.2z"/>
</svg>
