<?xml version="1.0" encoding="utf-8"?>
<!-- Generator: Adobe Illustrator 21.0.0, SVG Export Plug-In . SVG Version: 6.00 Build 0)  -->
<svg version="1.1" id="Calque_1" xmlns="http://www.w3.org/2000/svg" xmlns:xlink="http://www.w3.org/1999/xlink" x="0px" y="0px"
	 viewBox="0 0 952.4 952.4" style="enable-background:new 0 0 952.4 952.4;" xml:space="preserve">
<style type="text/css">
	.st0{fill:#007E49;}
	.st1{fill:#FFFFFF;}
</style>
<circle class="st0" cx="476.2" cy="476.2" r="476.2"/>
<path class="st1" d="M361.8,717.4V212.5h-88.1c-22.8,18-77.2,51.7-135.8,79.5l-30.7,14.1l34.2,77.3l26.5-13.6
	c18.6-9.3,69.4-35.8,86.6-49.3v396.8L361.8,717.4 M774,717.4v-84.5H566c6.6-29.4,57.1-71.5,83-95.1c60.8-55,115.9-94.5,115.9-180.8
	c0-103-83.9-153-172.4-153c-67.9,0-113,20.2-161.5,62.1l52.7,70c12.2-13.3,42.9-45.7,87.2-45.7c55.1,0,83.6,35.1,83.6,78.6
	c0,48.7-36.5,83.5-69.9,113c-67.2,58.6-125.2,110.1-138,168.7v66.7L774,717.4L774,717.4z"/>
</svg>
