<?xml version="1.0" encoding="utf-8"?>
<!-- Generator: Adobe Illustrator 21.0.0, SVG Export Plug-In . SVG Version: 6.00 Build 0)  -->
<svg version="1.1" id="Calque_1" xmlns="http://www.w3.org/2000/svg" xmlns:xlink="http://www.w3.org/1999/xlink" x="0px" y="0px"
	 viewBox="0 0 952.4 952.4" style="enable-background:new 0 0 952.4 952.4;" xml:space="preserve">
<style type="text/css">
	.st0{fill:#99D4DE;}
	.st1{fill:#231F20;}
</style>
<circle class="st0" cx="476.2" cy="476.2" r="476.2"/>
<path class="st1" d="M369,727.7V222.9h-88c-22.9,17.8-77.3,51.3-135.9,79.1l-30.8,14.3l34.4,77.7l26.5-13.6
	c18.5-9.3,69.4-35.7,86.5-49.2v396.5L369,727.7 M782.1,578c0-70.6-42.2-112-98-122.7v-1.4c53.6-20,81.4-59.9,81.4-112
	c0-67.8-58.6-127.7-161.4-127.7c-59.5,0-108,16.4-151.6,45l35,74.2c16.4-13.5,47.1-36.4,93.7-36.4c52.9,0,77.2,28.6,77.2,60.7
	c0,38.4-30.7,62.7-80.1,62.7h-52.9v83.4h52.2c51.6,0,95.8,18.5,95.8,76.3c0,42.8-36.4,74.9-95.2,74.9c-42.6,0-77.7-16.4-99.2-32.8
	L440.3,700c40.8,22.8,80.1,37.7,145.1,37.7C702.7,737.7,782.1,666.4,782.1,578L782.1,578L782.1,578z"/>
</svg>
