<?xml version="1.0" encoding="utf-8"?>
<!-- Generator: Adobe Illustrator 21.0.0, SVG Export Plug-In . SVG Version: 6.00 Build 0)  -->
<svg version="1.1" id="Calque_1" xmlns="http://www.w3.org/2000/svg" xmlns:xlink="http://www.w3.org/1999/xlink" x="0px" y="0px"
	 viewBox="0 0 952.4 952.4" style="enable-background:new 0 0 952.4 952.4;" xml:space="preserve">
<style type="text/css">
	.st0{fill:#0065AE;}
	.st1{fill:#FFFFFF;}
</style>
<circle class="st0" cx="476.2" cy="476.2" r="476.2"/>
<path class="st1" d="M644.2,705.7v-84.5H436c6.6-29.3,57.3-71.5,82.9-95c60.8-55.2,115.8-94.5,115.8-181c0-102.9-83.5-153-172.2-153
	c-68,0-113,20-161.6,62.3l53.1,70.1c12-13.7,42.8-45.8,87.1-45.8c55,0,83.6,35,83.6,78.6c0,48.8-36.2,83.7-69.9,113
	c-67.3,58.7-125.2,110.1-138,168.8v66.5L644.2,705.7"/>
</svg>
