<?xml version="1.0" encoding="utf-8"?>
<!-- Generator: Adobe Illustrator 21.0.0, SVG Export Plug-In . SVG Version: 6.00 Build 0)  -->
<svg version="1.1" id="Calque_1" xmlns="http://www.w3.org/2000/svg" xmlns:xlink="http://www.w3.org/1999/xlink" x="0px" y="0px"
	 viewBox="0 0 952.4 952.4" style="enable-background:new 0 0 952.4 952.4;" xml:space="preserve">
<style type="text/css">
	.st0{fill:#9F971A;}
	.st1{fill:#FFFFFF;}
</style>
<circle class="st0" cx="476.2" cy="476.2" r="476.2"/>
<path class="st1" d="M652.8,577.1c0-70.6-42-112.3-97.7-123v-1.3c53.5-20,81.3-60.2,81.3-112.3c0-67.3-58.5-127.3-161.9-127.3
	c-58.7,0-107.5,16.4-151.1,45.1l35,74.4c16.5-14.4,47.1-36.8,93.7-36.8c53.1,0,77.3,28.2,77.3,60.3c0,38.6-30.7,63-80.2,63h-53.1
	v83.7h52.3c51.7,0,95.9,18.3,95.9,76.4c0,42.9-36.3,74.2-95.1,74.2c-42.8,0-77.9-16.6-99.6-32.7l-38.4,77.7c40.8,23,80,38,144.9,38
	C573.7,736.7,652.8,665.7,652.8,577.1"/>
</svg>
