<?xml version="1.0" encoding="utf-8"?>
<!-- Generator: Adobe Illustrator 21.0.0, SVG Export Plug-In . SVG Version: 6.00 Build 0)  -->
<svg version="1.1" id="Calque_1" xmlns="http://www.w3.org/2000/svg" xmlns:xlink="http://www.w3.org/1999/xlink" x="0px" y="0px"
	 viewBox="0 0 952.4 952.4" style="enable-background:new 0 0 952.4 952.4;" xml:space="preserve">
<style type="text/css">
	.st0{fill:#84C28E;}
	.st1{fill:#231F20;}
</style>
<circle class="st0" cx="476.2" cy="476.2" r="476.2"/>
<path class="st1" d="M640.2,543.4c0-94.6-67.2-149.5-149.6-149.5c-53.3,0-85.6,19.3-102.7,34.4c6.4-101.4,58.5-152.3,128-152.3
	c28.4,0,54.3,6.4,67.6,12.3l15.9-85.8c-20.7-5.2-46.6-8.5-75.1-8.5c-158.7,0-239.4,119.9-239.4,295.1
	c0,133.7,48.5,228.9,184.4,228.9C573,717.9,640.2,644,640.2,543.4 M539.4,554.1c0,43.5-25,84.2-73.7,84.2
	c-50.1,0-77.1-46.4-77.1-94.4c0-14.9,0-34.2,5.7-42.8c10-15.8,35-27.8,65.8-27.8C508.5,473.3,539.4,506.8,539.4,554.1L539.4,554.1z"
	/>
</svg>
