<?xml version="1.0" encoding="utf-8"?>
<!-- Generator: Adobe Illustrator 21.0.0, SVG Export Plug-In . SVG Version: 6.00 Build 0)  -->
<svg version="1.1" id="Calque_1" xmlns="http://www.w3.org/2000/svg" xmlns:xlink="http://www.w3.org/1999/xlink" x="0px" y="0px"
	 viewBox="0 0 952.4 952.4" style="enable-background:new 0 0 952.4 952.4;" xml:space="preserve">
<style type="text/css">
	.st0{fill:#84C28E;}
	.st1{fill:#231F20;}
</style>
<circle class="st0" cx="476.2" cy="476.2" r="476.2"/>
<path class="st1" d="M506.6,305.8v-82.3h-353v84.3h244.9L275.8,536.6c-44.4,82.1-62.3,125.1-62.3,191.6h115.1
	C328.7,648.7,395.7,498.1,506.6,305.8 M597.4,473.2c-18.7,0-29.8,10-39.6,24.2v-76.2h-38.4v202.4h37v-7.7
	c7.4,6.8,20.2,11.3,31.3,11.3c46.5,0,63.8-45.8,63.8-78.6C651.5,513.2,635.7,473.2,597.4,473.2L597.4,473.2z M581.2,599.6
	c-17.5,0-23.5-9-23.5-19.1v-47.9c0-8.6,0.8-12.5,7.2-18.9c4.4-4.1,10.4-7.4,18-7.4c24.4,0,28.5,28,28.5,47.6
	C611.4,573.8,605.9,599.6,581.2,599.6L581.2,599.6z M725.4,438.5c0-11.8-8.3-20.2-21.5-20.2c-13,0-21.4,8.4-21.4,20.2
	c0,11.8,8.4,20.3,21.4,20.3C717.1,458.8,725.4,450.3,725.4,438.5L725.4,438.5z M684.7,477.4H723v146.1h-38.3L684.7,477.4z
	 M859.8,579.6c0-22.2-12.8-34.1-32.5-41.5l-17.9-6.5c-9.3-3.3-15.2-6.9-15.2-14.5c0-8.8,7.5-13.9,20.3-13.9c9.4,0,21,3.1,29.6,8.8
	l11.7-28.2c-7.7-3.8-21-9.5-39.4-9.5c-34.2,0-57.4,21.6-57.4,49.3c0,17.1,8.4,30.5,29.3,38.4l17.1,6.6c7.7,3.1,18.7,6.1,18.7,16.2
	c0,11.4-12.4,14.8-22.3,14.8c-11.6,0-25-4.4-34.3-11l-11.7,28.7c8.1,4.9,24.6,11.1,43,11.1C836.9,628.2,859.8,608.1,859.8,579.6
	L859.8,579.6L859.8,579.6z"/>
</svg>
