<?xml version="1.0" encoding="utf-8"?>
<!-- Generator: Adobe Illustrator 21.0.0, SVG Export Plug-In . SVG Version: 6.00 Build 0)  -->
<svg version="1.1" id="Calque_1" xmlns="http://www.w3.org/2000/svg" xmlns:xlink="http://www.w3.org/1999/xlink" x="0px" y="0px"
	 viewBox="0 0 952.4 952.4" style="enable-background:new 0 0 952.4 952.4;" xml:space="preserve">
<style type="text/css">
	.st0{fill:#CDACCF;}
	.st1{fill:#231F20;}
</style>
<circle class="st0" cx="476.2" cy="476.2" r="476.2"/>
<path class="st1" d="M656.4,585.6c0-66.3-40.7-106.5-87.2-128.4c47.2-28.7,71.6-65.2,71.6-112.3c0-86.7-73.7-130.3-162.3-130.3
	c-86.5,0-162.3,58-162.3,141.6c0,52.2,27.2,82.9,70.7,110c-48.6,25-86.5,64.5-86.5,131.6c0,76.6,63.5,143.7,175.8,143.7
	C579.9,741.5,656.4,681.6,656.4,585.6 M544.2,351.3c0,31.5-28.6,60.6-55.1,72.9c-32.1-13.6-73.6-35.8-73.6-77.2
	c0-34.9,25-59.3,64.3-59.3C521.3,287.7,544.2,316.1,544.2,351.3L544.2,351.3z M552,593.6c0,40-26.4,73.7-74.4,73.7
	c-48.7,0-75.8-39.5-75.8-80.9c0-39.2,32.9-72.1,65.8-85.1C510.5,522.8,552,547.8,552,593.6L552,593.6z"/>
</svg>
