<?xml version="1.0" encoding="utf-8"?>
<!-- Generator: Adobe Illustrator 21.0.0, SVG Export Plug-In . SVG Version: 6.00 Build 0)  -->
<svg version="1.1" id="Calque_1" xmlns="http://www.w3.org/2000/svg" xmlns:xlink="http://www.w3.org/1999/xlink" x="0px" y="0px"
	 viewBox="0 0 952.4 952.4" style="enable-background:new 0 0 952.4 952.4;" xml:space="preserve">
<style type="text/css">
	.st0{fill:#D5C900;}
	.st1{fill:#231F20;}
</style>
<circle class="st0" cx="476.2" cy="476.2" r="476.2"/>
<path class="st1" d="M299.2,387.6c0,94.4,67.1,149.4,149.3,149.4c53.2,0,86-19.3,103.1-34.1c-6.4,101.3-59.2,152.1-128.2,152.1
	c-28.3,0-54.2-6.4-67.9-12.1l-15.7,85.8c20.9,4.9,46.6,8.6,75.2,8.6c158.8,0,239.3-120.2,239.3-295.4
	c0-133.6-48.4-228.6-184.5-228.6C366.3,213.2,299.2,286.9,299.2,387.6 M399.9,377c0-43.7,25.1-84.4,73.3-84.4
	c49.9,0,77.7,46.5,77.7,94.3c0,15.2,0,34.4-5.7,42.9c-9.9,15.8-41.3,33.7-72,33.7C424.8,463.6,399.8,424.2,399.9,377L399.9,377
	L399.9,377z"/>
</svg>
