<?xml version="1.0" encoding="utf-8"?>
<!-- Generator: Adobe Illustrator 21.0.0, SVG Export Plug-In . SVG Version: 6.00 Build 0)  -->
<svg version="1.1" id="Calque_1" xmlns="http://www.w3.org/2000/svg" xmlns:xlink="http://www.w3.org/1999/xlink" x="0px" y="0px"
	 viewBox="0 0 160 160" style="enable-background:new 0 0 160 160;" xml:space="preserve">
<style type="text/css">
	.st0{fill:#14489E;}
</style>
<g id="Temps_d_x27_attente">
</g>
<g id="Calque_5">
</g>
<g id="Ardoise">
</g>
<g id="Logos">
	<g>
		<path class="st0" d="M160,80.4C160,36,122.8,0,80.2,0C36,0,0,36,0,80.4c0,44,36,79.6,80.2,79.6S160,124.6,160,80.4z M149,80.4
			c0,37.6-31,69-68.8,69c-38,0-69.2-31-69.2-69c0-38.2,31.2-69.8,69.2-69.8C118,10.6,149,42.4,149,80.4z M119.8,115.8V46
			c0-4-2.2-8.2-8.8-8.2c-5,0-7,2.2-9.2,6.6l-21.6,45H80l-21.8-45C56,40,54,37.8,49,37.8c-6.6,0-8.8,4.2-8.8,8.2v69.8
			c0,3.8,3,6,6.6,6c3.2,0,6.8-2.2,6.8-6v-52h0.2l19.8,40.4c1.4,2.8,3.2,4.4,6.4,4.4c3.2,0,5-1.6,6.4-4.4l19.8-40.4h0.2v52
			c0,3.8,3.6,6,6.8,6C116.8,121.8,119.8,119.6,119.8,115.8z"/>
	</g>
</g>
</svg>
