<?xml version="1.0" encoding="utf-8"?>
<!-- Generator: Adobe Illustrator 12.0.1, SVG Export Plug-In  -->
<!DOCTYPE svg PUBLIC "-//W3C//DTD SVG 1.1//EN" "http://www.w3.org/Graphics/SVG/1.1/DTD/svg11.dtd" [
	<!ENTITY ns_flows "http://ns.adobe.com/Flows/1.0/">
	<!ENTITY ns_svg "http://www.w3.org/2000/svg">
	<!ENTITY ns_xlink "http://www.w3.org/1999/xlink">
]>
<svg  version="1.1" xmlns="&ns_svg;" xmlns:xlink="&ns_xlink;" xmlns:a="http://ns.adobe.com/AdobeSVGViewerExtensions/3.0/"
	 width="106" height="106" viewBox="-0.892 -0.611 106 106" enable-background="new -0.892 -0.611 106 106" xml:space="preserve">
<defs>
</defs>
<path fill="#184B9C" d="M104.664,52.594C104.664,23.547,80.328,0,52.461,0C23.547,0,0,23.547,0,52.594
	c0,28.648,23.547,52.07,52.461,52.07S104.664,81.5,104.664,52.594"/>
<path fill="#FFFFFF" d="M97.465,52.594c0,24.598-20.277,44.875-45.004,44.875c-24.859,0-45.266-20.148-45.266-44.875
	c0-24.988,20.406-45.531,45.266-45.531C77.188,7.062,97.465,27.734,97.465,52.594z"/>
<path fill="#184B9C" d="M89.883,44.219c0-7.062-5.234-10.336-10.344-10.336h-9.805c-1.836,0-2.883,1.445-2.883,3.012v30.738
	c0,1.844,1.828,2.754,3.531,2.754c1.961,0,3.535-0.91,3.535-2.754V55.73h3.008l5.887,13.219c0.523,1.043,1.441,1.438,2.484,1.438
	c2.098,0,5.109-1.961,3.93-4.32l-5.629-11.77C87,52.594,89.883,49.586,89.883,44.219z"/>
<path fill="#184B9C" d="M63.32,66.984c0-1.57-1.047-3.27-2.879-3.27H50.5v-9.027h8.242c1.832,0,2.875-1.574,2.875-3.008
	c0-1.574-1.043-3.016-2.875-3.016H50.5v-8.242h9.156c1.836,0,2.875-1.828,2.875-3.266c0-1.57-1.039-3.273-2.875-3.273H46.312
	c-1.828,0-2.875,1.445-2.875,3.012v30.613c0,1.836,1.828,2.75,3.527,2.75h13.477C62.273,70.258,63.32,68.426,63.32,66.984z"/>
<path fill="#184B9C" d="M39.246,44.219c0-7.062-5.23-10.336-10.332-10.336h-9.816c-1.828,0-2.875,1.445-2.875,3.012v30.738
	c0,1.844,1.832,2.754,3.531,2.754c1.969,0,3.531-0.91,3.531-2.754V55.73h3.012l5.883,13.219c0.531,1.043,1.445,1.438,2.484,1.438
	c2.098,0,5.105-1.961,3.926-4.32l-5.621-11.77C36.367,52.594,39.246,49.586,39.246,44.219z"/>
<path fill="#FFFFFF" d="M82.555,45.008c0,4.445-4.055,5.492-6.547,5.492h-2.09V39.902h2.488
	C79.672,39.902,82.555,41.344,82.555,45.008z"/>
<path fill="#FFFFFF" d="M31.926,45.008c0,4.445-4.059,5.492-6.551,5.492h-2.09V39.902h2.484
	C29.039,39.902,31.926,41.344,31.926,45.008z"/>
</svg>
