<?xml version="1.0" encoding="utf-8"?>
<!-- Generator: Adobe Illustrator 21.0.0, SVG Export Plug-In . SVG Version: 6.00 Build 0)  -->
<svg version="1.1" id="Calque_1" xmlns="http://www.w3.org/2000/svg" xmlns:xlink="http://www.w3.org/1999/xlink" x="0px" y="0px"
	 viewBox="0 0 954.6 954.4" style="enable-background:new 0 0 954.6 954.4;" xml:space="preserve">
<style type="text/css">
	.st0{fill:#FFFFFF;stroke:#BA3187;stroke-width:70;stroke-miterlimit:10;}
	.st1{fill:#BA3187;}
</style>
<circle class="st0" cx="476.2" cy="476.2" r="442.9"/>
<path class="st1" d="M325.2,709.6v-63.2c12.2-55.9,67.3-104.9,131.3-160.7c32-28,66.7-61.3,66.7-107.7c0-41.5-27.1-74.8-79.5-74.8
	c-42.3,0-71.5,30.6-83.1,43.5l-50.4-66.5c46.4-40.3,89.2-59.2,153.9-59.2c84.4,0,164,47.4,164,145.7c0,82.3-52.4,119.7-110.2,172
	c-24.6,22.6-73,62.8-78.9,90.7h198v80.2L325.2,709.6"/>
</svg>
