<?xml version="1.0" encoding="utf-8"?>
<!-- Generator: Adobe Illustrator 21.0.0, SVG Export Plug-In . SVG Version: 6.00 Build 0)  -->
<svg version="1.1" id="Calque_1" xmlns="http://www.w3.org/2000/svg" xmlns:xlink="http://www.w3.org/1999/xlink" x="0px" y="0px"
	 viewBox="0 0 954.8 954.5" style="enable-background:new 0 0 954.8 954.5;" xml:space="preserve">
<style type="text/css">
	.st0{fill:#FFFFFF;stroke:#F58A49;stroke-width:70;stroke-miterlimit:10;}
	.st1{fill:#F78C48;}
</style>
<circle class="st0" cx="476.2" cy="476.2" r="442.9"/>
<path class="st1" d="M336.9,737.6c-70.7,0-109.7-17.7-142.2-37.1l39-76.3c20.4,14.9,54.8,32.5,96.8,32.5c56.6,0,92.9-33.5,92.9-75.2
	c0-56.7-43.7-76.3-93.9-76.3h-51.1v-81.8h52.1c48.3,0,78-24.1,78-62.2c0-31.6-23.3-60.4-75.4-60.4c-45.4,0-75.2,21.2-91,35.2
	l-36.2-72.5c41.8-27.9,87.4-43.7,149.5-43.7c100.5,0,157.1,59.5,157.1,125.4c0,51.2-26.9,91.2-79,110.6v1.9
	c54,10.2,95.8,52,95.8,120.8C529.2,665.2,451.1,737.6,336.9,737.6L336.9,737.6L336.9,737.6z M813.5,591.5l-4-45.8
	c-3,1-8.5,2.5-11.6,2.5c-8.5,0-9.5-8-9.5-17.6V410c0-77.4-60.9-91-98.6-91c-43.2,0-75.4,8-107.1,28.2l23.1,48.8
	c11.6-10.1,35.2-24.6,66.4-24.6c33.7,0,49.3,13.6,49.3,34.2v18.6c0,9.1-6.5,9.6-17.6,9.6c-59.3,0-135.8,14.1-135.8,87
	c0,45.8,32.2,81,79.5,81c36.7,0,57.3-14.1,79.5-40.2c4,21.1,16.6,36.7,41.7,36.7C785.3,598.1,802.9,594,813.5,591.5 M721,502.5
	c0,13-3.6,23.1-11.6,31.6c-9.1,9.6-22.2,14.6-37.7,14.6c-19.6,0-33.7-14.1-33.7-33.7c0-32.2,37.2-38.2,61.8-38.2
	c7.5,0,15.1-0.5,21.2,0L721,502.5"/>
</svg>
