<?xml version="1.0" encoding="utf-8"?>
<!-- Generator: Adobe Illustrator 21.0.0, SVG Export Plug-In . SVG Version: 6.00 Build 0)  -->
<svg version="1.1" id="Calque_1" xmlns="http://www.w3.org/2000/svg" xmlns:xlink="http://www.w3.org/1999/xlink" x="0px" y="0px"
	 viewBox="0 0 954.7 954.7" style="enable-background:new 0 0 954.7 954.7;" xml:space="preserve">
<style type="text/css">
	.st0{fill:#FFFFFF;stroke:#00A962;stroke-width:70;stroke-miterlimit:10;}
	.st1{fill:#00A962;}
</style>
<circle class="st0" cx="476.2" cy="476.2" r="442.9"/>
<path class="st1" d="M336,740.7c-72.4,0-112.4-18.1-145.7-38l39.9-78.1c20.9,15.3,56.2,33.3,99.1,33.3c58,0,95.2-34.3,95.2-77.1
	c0-58.1-44.7-78.2-96.3-78.2h-52.4v-83.8h53.4c49.4,0,79.9-24.7,79.9-63.7c0-32.4-23.8-61.9-77.2-61.9c-46.6,0-77,21.8-93.3,36.1
	l-37.1-74.2c42.8-28.6,89.5-44.8,153.2-44.8c103,0,161,61,161,128.5c0,52.4-27.6,93.4-81,113.4v1.9c55.3,10.5,98.1,53.2,98.1,123.7
	C533,666.5,453,740.7,336,740.7L336,740.7z M827.7,459.5c0-64.9-29.2-138.3-99.6-138.3c-34.2,0-54.8,18.1-72.9,44.3V225.2h-70.9
	v372.1h68.4v-14.1c13.6,12.6,37.2,20.6,57.3,20.6C796.1,603.9,827.7,519.9,827.7,459.5 M753.8,469.6c0,36.7-10.1,84-55.3,84
	c-32.2,0-43.2-16.6-43.2-35.2v-88c0-15.6,1.5-23.1,13.6-34.7c7.5-7.5,18.6-13.6,32.7-13.6C746.3,382.1,753.8,433.4,753.8,469.6"/>
</svg>
