<?xml version="1.0" encoding="utf-8"?>
<!-- Generator: Adobe Illustrator 21.0.0, SVG Export Plug-In . SVG Version: 6.00 Build 0)  -->
<svg version="1.1" id="Calque_1" xmlns="http://www.w3.org/2000/svg" xmlns:xlink="http://www.w3.org/1999/xlink" x="0px" y="0px"
	 viewBox="0 0 956 956" style="enable-background:new 0 0 956 956;" xml:space="preserve">
<style type="text/css">
	.st0{fill:#FFFFFF;stroke:#ED5839;stroke-width:70;stroke-miterlimit:10;}
	.st1{fill:#ED5839;}
</style>
<circle class="st0" cx="476.2" cy="476.2" r="442.9"/>
<path class="st1" d="M647,560.4c0-91-64.6-143.8-143.9-143.8c-51.2,0-82.3,18.6-98.7,33c6.2-97.5,56.3-146.4,123.1-146.4
	c27.3,0,52.2,6.2,65.1,11.8l15.3-82.5c-19.9-5-44.8-8.2-72.2-8.2C383,224.2,305.4,339.5,305.4,508c0,128.6,46.6,220.1,177.3,220.1
	C582.5,728.2,647,657.1,647,560.4 M550.1,570.7c0,41.8-24,81-70.9,81c-48.2,0-74.2-44.7-74.2-90.8c0-14.3,0-33,5.5-41.2
	c9.6-15.2,33.7-26.7,63.2-26.7C520.5,493,550.1,525.2,550.1,570.7L550.1,570.7z"/>
</svg>
