<svg xmlns="http://www.w3.org/2000/svg" width="1000" height="1000" viewBox="0 0 1050 1050"><circle fill="#FFF" stroke="#ED5839" stroke-width="70" stroke-miterlimit="10" cx="500" cy="500" r="465"/><path fill="#ED5839" d="M679.373 588.372c0-95.53-67.817-151.029-151.101-151.029-53.807 0-86.454 19.484-103.687 34.682C431.049 369.6 483.667 318.26 553.878 318.26c28.632 0 54.797 6.465 68.303 12.39l16.044-86.652c-20.888-5.205-47.053-8.59-75.83-8.59-160.23 0-241.768 121.064-241.768 298.042 0 134.984 48.963 231.144 186.198 231.144 104.75-.015 172.548-74.587 172.548-176.221m-101.779 10.822c0 43.902-25.246 85.05-74.425 85.05-50.583 0-77.864-46.91-77.864-95.314 0-15.054 0-34.61 5.762-43.254 10.066-15.973 35.385-28.074 66.412-28.074 49.016 0 80.115 33.836 80.115 81.592z"/></svg>