<svg xmlns="http://www.w3.org/2000/svg" width="1000" height="1000" viewBox="0 0 1050 1050"><circle fill="#FFF" stroke="#B1A245" stroke-width="70" stroke-miterlimit="10" cx="500" cy="500" r="465"/><path fill="#B1A245" d="M677.821 607.49c0-66.25-40.67-106.403-87.13-128.315 47.137-28.734 71.543-65.128 71.543-112.176 0-86.576-73.626-130.221-162.18-130.221-86.47 0-162.145 57.985-162.145 141.48 0 52.124 27.167 82.8 70.633 109.95-48.544 24.975-86.363 64.433-86.363 131.45 0 76.476 63.454 143.564 175.63 143.564 103.571 0 180.012-59.909 180.012-155.731M565.752 373.324c0 31.53-28.574 60.603-55.01 72.86-32.083-13.575-73.555-35.771-73.555-77.1 0-34.934 24.94-59.286 64.256-59.286 41.4 0 64.31 28.45 64.31 63.526zm7.82 242.094c0 40.01-26.436 73.626-74.32 73.626-48.615 0-75.675-39.458-75.675-80.787 0-39.174 32.85-72.023 65.699-84.974 42.825 21.43 84.296 46.424 84.296 92.135z"/></svg>