<?xml version="1.0" encoding="utf-8"?>
<!-- Generator: Adobe Illustrator 21.0.0, SVG Export Plug-In . SVG Version: 6.00 Build 0)  -->
<svg version="1.1" id="Calque_1" xmlns="http://www.w3.org/2000/svg" xmlns:xlink="http://www.w3.org/1999/xlink" x="0px" y="0px"
	 viewBox="0 0 955.6 955.6" style="enable-background:new 0 0 955.6 955.6;" xml:space="preserve">
<style type="text/css">
	.st0{fill:#FFFFFF;stroke:#B1A245;stroke-width:70;stroke-miterlimit:10;}
	.st1{fill:#B1A245;}
</style>
<circle class="st0" cx="476.2" cy="476.2" r="442.9"/>
<path class="st1" d="M645.5,578.6c0-63.1-38.7-101.3-83-122.2c44.9-27.4,68.1-62,68.1-106.8c0-82.5-70.1-124-154.5-124
	c-82.4,0-154.4,55.2-154.4,134.7c0,49.6,25.9,78.9,67.3,104.7c-46.2,23.8-82.3,61.4-82.3,125.2c0,72.8,60.4,136.7,167.3,136.7
	C572.7,726.9,645.5,669.8,645.5,578.6 M538.8,355.5c0,30-27.2,57.7-52.4,69.4c-30.6-12.9-70.1-34.1-70.1-73.4
	c0-33.3,23.8-56.5,61.2-56.5C517,295,538.8,322.1,538.8,355.5L538.8,355.5z M546.3,586.1c0,38.1-25.2,70.1-70.8,70.1
	c-46.3,0-72.1-37.6-72.1-76.9c0-37.3,31.3-68.6,62.6-80.9C506.8,518.8,546.3,542.6,546.3,586.1z"/>
</svg>
