<?xml version="1.0" encoding="utf-8"?>
<!-- Generator: Adobe Illustrator 21.0.0, SVG Export Plug-In . SVG Version: 6.00 Build 0)  -->
<svg version="1.1" id="Calque_1" xmlns="http://www.w3.org/2000/svg" xmlns:xlink="http://www.w3.org/1999/xlink" x="0px" y="0px"
	 viewBox="0 0 954.3 954.4" style="enable-background:new 0 0 954.3 954.4;" xml:space="preserve">
<style type="text/css">
	.st0{fill:#FFFFFF00;stroke:#468FCC;stroke-width:70;stroke-miterlimit:10;}
	.st1{fill:#468FCC;}
</style>
<circle class="st0" cx="476.2" cy="476.2" r="442.9"/>
<path class="st1" d="M671.5,560.4c0-64.5-39.2-101.9-87.6-108.5v-1.2c35.6-6.5,72.7-42,72.7-89.1c0-98.7-90.5-115.5-164.6-115.5
	H321.6v455.6h163.2C571,701.7,671.5,675.2,671.5,560.4 M561,375.1c0,52.3-53.5,51.6-87.6,51.6h-50.6V322.2H472
	C504.7,322.2,561,320.9,561,375.1L561,375.1z M570.3,557.7c0,59.4-41.3,68.5-88.3,68.5h-59.2V499.1h53.5
	C509.7,499.1,570.3,501,570.3,557.7L570.3,557.7z"/>
</svg>
